<svg xmlns="http://www.w3.org/2000/svg" width="128" height="128" viewBox="0 0 128 128"><title>Coral festival girl with twin buns</title><g stroke="#30333f" stroke-width="3" stroke-linecap="round" stroke-linejoin="round"><circle cx="64" cy="64" r="59" fill="#f9b5b5"/><path d="M28 118Q30 91 64 91Q98 91 100 118" fill="#e86670"/><path d="M47 95L64 113L80 95M64 113L59 123" fill="none" stroke="#fff0dc" stroke-width="5"/><circle cx="30" cy="35" r="16" fill="#514453"/><circle cx="97" cy="35" r="16" fill="#514453"/><path d="M21 31Q27 22 38 25M89 25Q101 22 107 33" fill="none" stroke="#f38f98" stroke-width="5"/><path d="M31 55Q25 24 63 22Q104 24 98 57L93 84H36Z" fill="#514453"/><circle cx="33" cy="66" r="8" fill="#ffdbb6"/><circle cx="95" cy="66" r="8" fill="#ffdbb6"/><path d="M35 48Q64 28 93 49V68Q92 94 64 99Q36 94 35 68Z" fill="#ffdbb6"/><path d="M32 54Q30 28 64 27Q97 28 96 54L82 49L73 37L65 53L54 43L44 54Z" fill="#514453"/><path d="M48 65V70M79 65V70" stroke-width="4"/><path d="M59 80Q64 86 70 80" fill="none"/><path d="M40 77H48M80 77H88" stroke="#f2949c" stroke-width="5"/><path d="M88 36Q78 23 77 39Q79 48 89 44Q101 51 102 40Q100 31 88 36Z" fill="#ffe19b"/><circle cx="89" cy="41" r="4" fill="#ed7d89"/></g></svg>
